<svg width="24" height="24" viewBox="0 0 24 24" fill="none" xmlns="http://www.w3.org/2000/svg">
<g id="ion-ios-swap">
<path id="Vector" d="M18.2297 12.4828C17.9906 12.2484 17.9859 11.8594 18.225 11.6203L20.4375 9.37501H9.89062C9.55313 9.37501 9.28125 9.10313 9.28125 8.76563C9.28125 8.42813 9.55313 8.15626 9.89062 8.15626H20.4328L18.2203 5.91094C17.9859 5.67188 17.9859 5.28751 18.225 5.04844C18.4641 4.81407 18.8484 4.81407 19.0875 5.05313L22.3219 8.33438C22.3734 8.39063 22.4203 8.45157 22.4484 8.52657C22.4812 8.60157 22.4953 8.68126 22.4953 8.76094C22.4953 8.92032 22.4344 9.07032 22.3219 9.18751L19.0875 12.4688C18.8531 12.7125 18.4688 12.7172 18.2297 12.4828Z" fill="#031A6E"/>
<path id="Vector_2" d="M5.77032 18.9516C6.00939 18.7172 6.01407 18.3281 5.77501 18.0891L3.5672 15.8437H14.1094C14.4469 15.8437 14.7188 15.5719 14.7188 15.2344C14.7188 14.8969 14.4469 14.625 14.1094 14.625H3.5672L5.7797 12.3797C6.01407 12.1406 6.01407 11.7562 5.77501 11.5172C5.53595 11.2828 5.15157 11.2828 4.91251 11.5219L1.67814 14.8031C1.62657 14.8594 1.5797 14.9203 1.55157 14.9953C1.51876 15.0703 1.5047 15.15 1.5047 15.2297C1.5047 15.3891 1.56564 15.5391 1.67814 15.6562L4.91251 18.9375C5.14689 19.1812 5.53126 19.1859 5.77032 18.9516Z" fill="#031A6E"/>
</g>
</svg>
