<svg width="24" height="24" viewBox="0 0 24 24" fill="none" xmlns="http://www.w3.org/2000/svg">
<g id="ion-ios-wallet">
<path id="Vector" d="M18.9375 7.5H5.0625C3.51094 7.5 2.25 8.76094 2.25 10.3125V18.1875C2.25 19.7391 3.51094 21 5.0625 21H18.9375C20.4891 21 21.75 19.7391 21.75 18.1875V10.3125C21.75 8.76094 20.4891 7.5 18.9375 7.5Z" fill="#031A6E"/>
<path id="Vector_2" d="M16.0734 3.04688L5.0625 5.19844C4.21875 5.38594 3 6.23438 3 7.26563C3 7.26563 3.70312 6.37501 5.29688 6.37501H18.75V5.41407C18.75 4.82344 18.5156 4.06876 18.0984 3.65157C17.5688 3.12188 16.8094 2.89219 16.0734 3.04688Z" fill="#031A6E"/>
</g>
</svg>
